<svg width="35" height="28" viewBox="0 0 35 28" fill="none" xmlns="http://www.w3.org/2000/svg">
<path d="M25 14C25 16.7614 22.7614 19 20 19C17.2386 19 15 16.7614 15 14C15 11.2386 17.2386 9 20 9C22.7614 9 25 11.2386 25 14Z" fill="white"/>
<circle cx="20" cy="14" r="5" fill="#46694F"/>
<path d="M34.5175 5.27734L23.8712 0C22.7722 1.52031 20.3389 2.58125 17.501 2.58125C14.6631 2.58125 12.2298 1.52031 11.1307 0L0.48448 5.27734C0.0525059 5.49609 -0.122471 6.02109 0.090782 6.45312L3.21849 12.7148C3.43721 13.1469 3.96214 13.3219 4.39412 13.1086L7.48902 11.5938C8.06863 11.3094 8.74667 11.7305 8.74667 12.3812V26.25C8.74667 27.218 9.52859 28 10.4964 28H24.4946C25.4624 28 26.2444 27.218 26.2444 26.25V12.3758C26.2444 11.7305 26.9224 11.3039 27.502 11.5883L30.5969 13.1031C31.0289 13.3219 31.5538 13.1469 31.7725 12.7094L34.9057 6.45312C35.1244 6.02109 34.9494 5.49062 34.5175 5.27734Z" fill="white"/>
</svg>
