<svg width="31" height="31" viewBox="0 0 31 31" fill="none" xmlns="http://www.w3.org/2000/svg">
<path d="M24.1543 30.3041H6.71293C3.23061 30.3041 0.417969 27.5091 0.417969 24.0486V6.71648C0.417969 3.25597 3.23061 0.460938 6.71293 0.460938H24.1543C27.6366 0.460938 30.4492 3.25597 30.4492 6.71648V24.0486C30.4492 27.5091 27.6366 30.3041 24.1543 30.3041Z" fill="#0A0E88"/>
<g clip-path="url(#clip0_60_3212)">
<path d="M23.4203 19.4519H7.26484C6.74264 19.4519 6.31836 19.0281 6.31836 18.5064V10.7795C6.31836 10.2578 6.74264 9.83398 7.26484 9.83398H23.4203C23.9425 9.83398 24.3667 10.2578 24.3667 10.7795V18.5064C24.3667 19.0281 23.9425 19.4519 23.4203 19.4519Z" fill="white"/>
<path d="M16.2728 14.9513C16.2075 14.4623 15.8811 14.0384 15.4242 13.8428C14.8041 13.5494 14.0534 13.745 13.6291 14.2993C13.368 14.6579 13.2375 15.0817 13.3028 15.5382C13.368 16.3533 14.0861 16.9727 14.902 16.9401C15.0978 16.9401 15.2936 16.8749 15.4895 16.7771C15.4895 16.7445 15.4895 16.7119 15.4895 16.6793C15.4895 16.7119 15.4895 16.7445 15.4895 16.7771C16.1096 16.3859 16.4359 15.636 16.2728 14.9513Z" fill="url(#paint0_linear_60_3212)"/>
<path d="M27.602 11.5297C27.602 10.7472 27.602 9.99732 27.602 9.21484L22.2495 12.9968C22.2495 13.0294 22.2495 13.062 22.2495 13.0946C22.2821 13.4859 22.1516 13.8771 21.8578 14.1705C21.1398 14.9856 20.4871 15.8333 19.8017 16.6484C19.8017 16.6484 19.6711 16.7462 19.7038 16.844C19.7364 16.9092 19.8343 16.844 19.8996 16.844H22.1189C22.3148 16.844 22.38 16.844 22.3474 17.0722C22.3474 17.3004 22.3474 17.5287 22.3474 17.7569V17.8547L22.2495 17.8873C22.2168 17.8873 22.1516 17.8873 22.1189 17.8873H18.4636C18.2351 17.8873 18.2025 17.8873 18.1698 17.5939C18.1372 17.2026 18.2677 16.7788 18.5615 16.4854C19.2142 15.7355 19.8996 14.9856 20.4871 14.2031L17.256 16.4854C17.256 16.844 17.256 17.2352 17.256 17.5939C17.256 17.9851 17.256 17.8221 17.0275 17.8221H16.3748C16.2116 17.8221 16.179 17.8221 16.179 17.6265C16.179 17.5613 16.179 17.4635 16.179 17.3982V17.2678C16.179 17.2678 16.081 17.2678 16.0484 17.3656C15.8526 17.4961 15.6568 17.5939 15.4609 17.6917V25.2882H15.4936C15.7547 25.3208 16.0158 25.223 16.2442 25.06L18.8226 23.5603C19.5732 23.1038 20.3239 22.6474 21.0419 22.1583C21.7599 21.6693 22.38 21.3758 23.0328 20.952C23.6855 20.5282 24.5341 20.0065 25.3826 19.4523C26.2312 18.898 26.884 18.572 27.5693 18.0503C27.6999 17.8547 27.7652 17.6591 27.7325 17.4309C27.7325 16.4528 27.7325 15.5073 27.7325 14.5292C27.7325 14.4314 27.7325 14.3335 27.7325 14.2357C27.5693 13.225 27.5693 12.3774 27.602 11.5297Z" fill="url(#paint1_linear_60_3212)"/>
<path d="M8.57316 11.2032C8.57316 11.1054 8.57316 10.975 8.70371 10.9424H9.51964C9.71546 10.9424 9.78074 10.9424 9.78074 11.2032C9.78074 11.464 9.78074 11.9857 9.78074 12.3769C9.78074 12.5399 9.78074 12.703 9.78074 12.8986L12.2285 14.5613C12.2938 14.3005 12.3917 14.0723 12.5223 13.8441L12.7181 13.5506C13.0771 13.1268 13.5993 12.8334 14.1541 12.7356C14.8069 12.6051 15.4922 12.8008 16.0144 13.2572C16.0471 13.3224 16.1124 13.3876 16.2103 13.4202C16.2103 13.2572 16.2103 13.1268 16.2103 12.9964C16.2103 12.866 16.2103 12.8334 16.3735 12.8334H17.0588C17.2547 12.8334 17.2873 12.8334 17.2873 13.0616C17.2873 14.1701 17.2873 15.2786 17.2873 16.4197C17.2873 16.4523 17.2873 16.4849 17.2873 16.5175L20.5184 14.2353C20.5837 14.1375 20.6816 14.0397 20.7468 13.9745L20.8448 13.8441H18.2664C18.2338 13.5506 18.2338 13.2572 18.2664 12.9638C18.2664 12.8008 18.3643 12.8334 18.4622 12.8334H19.8004C19.9635 12.866 20.1267 12.866 20.3226 12.8334H22.0197C22.2155 12.8334 22.2482 12.8334 22.2808 12.9964L27.6007 9.21441C27.6007 9.14921 27.6007 9.084 27.6007 9.0514L27.4701 8.82318C27.4701 8.62756 27.2743 8.49714 27.1111 8.39933C26.7194 8.17111 26.3278 7.91029 25.9688 7.64946C25.7077 7.55165 25.4792 7.42124 25.2508 7.25822C24.4022 6.76917 23.5536 6.24752 22.7051 5.75847C22.5419 5.66066 22.3461 5.62806 22.1502 5.66066C22.0523 5.66066 21.9544 5.66066 21.8565 5.66066L19.7024 7.03L18.1032 7.97549C17.5158 8.39933 16.8304 8.72537 16.1124 8.92099C15.1985 9.084 14.252 8.88838 13.4687 8.39933L12.7507 8.0081L10.9557 6.83438C10.8578 6.80178 10.7925 6.73657 10.6946 6.70397C10.3682 6.44314 10.0092 6.21492 9.61755 6.0193C9.61755 5.88889 9.45437 5.85628 9.38909 5.82368H9.29118C9.25854 5.82368 9.22591 5.82368 9.19327 5.82368C8.93217 5.62806 8.6058 5.62806 8.3447 5.82368L6.71284 6.76917L6.45174 6.93219L3.90604 8.43194C3.80813 8.49714 3.67758 8.59495 3.6123 8.69276L8.57316 12.0835C8.57316 11.7901 8.57316 11.4966 8.57316 11.2032ZM8.50789 11.6271L8.11624 11.3662L8.50789 11.6271Z" fill="url(#paint2_linear_60_3212)"/>
<path d="M15.3608 17.7551C14.4796 18.0811 13.5331 17.8529 12.913 17.2334C12.3908 16.6792 12.1297 15.9619 12.1624 15.1794C12.1624 14.9512 12.2277 14.723 12.2603 14.5274L9.8125 12.8646C9.8125 13.1254 9.8125 13.3863 9.8125 13.6471C9.8125 14.56 9.8125 15.4729 9.8125 16.3532C9.8125 16.451 9.8125 16.5488 9.8125 16.614C9.8125 16.6792 9.97568 16.614 10.041 16.614H11.836V17.6899L8.63756 17.7877C8.63756 17.6899 8.63756 17.5921 8.63756 17.5269C8.63756 15.7011 8.63756 13.8753 8.63756 12.0495L3.61143 8.69141C3.54615 8.78922 3.48088 8.88703 3.44824 8.98484C3.44824 8.98484 3.44824 8.98484 3.44824 9.08265C3.44824 9.57169 3.44824 10.0933 3.44824 10.5824C3.44824 10.6476 3.44824 10.7128 3.44824 10.7454C3.44824 10.8758 3.44824 10.941 3.44824 10.941C3.44824 12.7342 3.44824 14.5274 3.44824 16.3206C3.44824 16.3858 3.44824 16.451 3.44824 16.5162C3.44824 17.0704 3.44824 17.3965 3.44824 17.5269C3.44824 17.8203 3.57879 18.0811 3.80725 18.2115C4.06835 18.4072 4.36208 18.6028 4.65582 18.7658C5.01483 18.9288 5.3412 19.157 5.66757 19.3527C6.64669 19.9395 7.56053 20.5916 8.57228 21.1132L9.06184 21.4393L10.7263 22.5152C11.1833 22.8086 11.6728 23.0694 12.1297 23.3303L12.8804 23.7867L14.8713 25.0256C15.0345 25.156 15.2629 25.2538 15.4587 25.2538V17.6899C15.4261 17.7225 15.3935 17.7551 15.3608 17.7551Z" fill="url(#paint3_linear_60_3212)"/>
</g>
<defs>
<linearGradient id="paint0_linear_60_3212" x1="13.2768" y1="15.2914" x2="16.3148" y2="15.2914" gradientUnits="userSpaceOnUse">
<stop stop-color="#F77C00"/>
<stop offset="1" stop-color="#FF00E2"/>
</linearGradient>
<linearGradient id="paint1_linear_60_3212" x1="15.4756" y1="17.2624" x2="27.6992" y2="17.2624" gradientUnits="userSpaceOnUse">
<stop stop-color="#DF0039"/>
<stop offset="1" stop-color="#FF00E2"/>
</linearGradient>
<linearGradient id="paint2_linear_60_3212" x1="3.61025" y1="11.0643" x2="27.6043" y2="11.0643" gradientUnits="userSpaceOnUse">
<stop stop-color="#F77C00"/>
<stop offset="1" stop-color="#FF00E2"/>
</linearGradient>
<linearGradient id="paint3_linear_60_3212" x1="3.44824" y1="16.9934" x2="15.4734" y2="16.9934" gradientUnits="userSpaceOnUse">
<stop stop-color="#F26700"/>
<stop offset="1" stop-color="#ED3E1F"/>
</linearGradient>
<clipPath id="clip0_60_3212">
<rect width="24.2494" height="19.557" fill="white" transform="translate(3.44824 6.05664)"/>
</clipPath>
</defs>
</svg>
