<svg width="41" height="32" viewBox="0 0 41 32" fill="none" xmlns="http://www.w3.org/2000/svg">
<path d="M38.5962 0.00387899C34.6954 0.226021 26.9423 1.03459 22.156 3.97457C21.8258 4.17743 21.6386 4.53814 21.6386 4.91528V30.9059C21.6386 31.7309 22.5376 32.2523 23.2957 31.8694C28.22 29.3823 35.3418 28.7037 38.8631 28.518C40.0654 28.4545 41 27.4873 41 26.328V2.19673C41.0007 0.931732 39.9074 -0.0704064 38.5962 0.00387899ZM18.844 3.97457C14.0584 1.03459 6.30528 0.226735 2.40452 0.00387899C1.09335 -0.0704064 0 0.931732 0 2.19673V26.3288C0 27.4887 0.934617 28.4559 2.13688 28.5187C5.65966 28.7045 12.785 29.3837 17.7093 31.8723C18.4653 32.2544 19.3614 31.7337 19.3614 30.9109V4.90243C19.3614 4.52457 19.175 4.17814 18.844 3.97457Z" fill="#46694F"/>
</svg>
