<svg width="31" height="31" viewBox="0 0 31 31" fill="none" xmlns="http://www.w3.org/2000/svg">
<path d="M24.3652 30.3041H6.92387C3.44155 30.3041 0.628906 27.5091 0.628906 24.0486V6.71648C0.628906 3.25597 3.44155 0.460938 6.92387 0.460938H24.3652C27.8475 0.460938 30.6602 3.25597 30.6602 6.71648V24.0486C30.6602 27.5091 27.8475 30.3041 24.3652 30.3041Z" fill="#ED2624"/>
<path d="M16.1679 8.10749C15.2006 10.1483 15.6173 11.9525 17.4329 13.2983C18.0281 13.7419 18.6829 14.0968 19.3229 14.4665C19.9776 14.8363 20.5283 15.3686 20.8557 15.9898C21.317 16.8475 20.3348 18.0306 19.055 18.0602C16.1679 18.1785 13.2809 18.1785 10.3938 18.208C10.3492 18.208 10.3194 18.208 10.2748 18.208L10.8403 16.5517L11.0933 16.4926C12.3285 16.4926 13.5488 16.4926 14.7839 16.4926C15.0518 16.4926 15.3792 16.5813 15.4983 16.182C15.7066 15.5313 16.0935 14.9398 16.1977 14.2004C13.891 14.2004 11.6588 14.2004 9.42652 14.2004C8.78661 14.2004 8.31039 14.437 8.11693 15.1172C7.73001 16.5074 7.29844 17.8827 6.9264 19.2876C6.73293 20.027 6.88175 20.6481 7.70024 20.9587C11.2272 20.9587 14.7542 20.9439 18.2811 20.9439C19.2782 20.9439 20.2604 20.8404 21.1979 20.4263C22.9242 19.6573 24.085 18.4299 24.3826 16.5517C24.6951 14.5849 23.713 13.2243 22.1057 12.2335C21.5105 11.8638 20.8705 11.5236 20.2902 11.1391C19.6056 10.6807 18.9359 10.1927 19.2187 9.20184C19.5014 8.19622 20.3943 7.3237 21.4063 7.51595C21.57 7.54553 21.7039 7.56032 21.8379 7.56032C22.4927 7.66384 22.954 7.87087 22.954 7.87087L24.0255 5.14979C23.579 4.98712 23.1474 4.85402 22.8647 4.76529C20.0223 4.30684 17.3436 5.63781 16.1679 8.10749Z" fill="white"/>
<path d="M11.6048 26.0552C12.6943 25.8467 13.4075 24.7999 13.1977 23.7172C12.9879 22.6344 11.9345 21.9257 10.8449 22.1342C9.75535 22.3427 9.04216 23.3895 9.25198 24.4722C9.46179 25.555 10.5152 26.2637 11.6048 26.0552Z" fill="white"/>
<path d="M20.4348 26.0552C21.5244 25.8467 22.2376 24.7999 22.0278 23.7172C21.818 22.6344 20.7646 21.9257 19.675 22.1342C18.5854 22.3427 17.8722 23.3895 18.0821 24.4722C18.2919 25.555 19.3452 26.2637 20.4348 26.0552Z" fill="white"/>
</svg>
