<svg width="31" height="31" viewBox="0 0 31 31" fill="none" xmlns="http://www.w3.org/2000/svg">
<path d="M24.3708 30.3823H7.34015C3.74998 30.3823 0.839844 27.4904 0.839844 23.9227V6.99866C0.839844 3.43097 3.74998 0.539062 7.34015 0.539062H24.3708C27.961 0.539062 30.8711 3.43097 30.8711 6.99866V23.9227C30.8711 27.4904 27.961 30.3823 24.3708 30.3823Z" fill="#EA501F"/>
<path d="M7.39122 11.0564H11.6615C11.7919 9.61938 12.1946 8.32886 12.773 7.33138C13.5386 6.01268 14.6274 5.20117 15.858 5.20117C17.0886 5.20117 18.1718 6.01832 18.943 7.33138C19.5215 8.32323 19.9241 9.61938 20.0545 11.0564H24.3191C24.8238 11.0564 25.2775 11.4678 25.2378 11.9694L24.3815 23.8433C24.2738 25.3311 23.3324 26.182 21.9657 26.182H9.75036C8.23053 26.182 7.42525 25.1282 7.33451 23.8433L6.47252 11.975C6.4385 11.4735 6.88651 11.0564 7.39122 11.0564ZM12.7276 11.0564H18.9771C18.8523 9.81099 18.5064 8.70644 18.013 7.86112C17.4459 6.87491 16.6746 6.26064 15.858 6.26064C15.0357 6.26064 14.2701 6.87491 13.6917 7.86675C13.1983 8.70644 12.8581 9.81663 12.7276 11.0564Z" fill="white"/>
<path d="M12.7561 22.0157C12.5576 21.8805 12.5066 21.6156 12.6427 21.4183C12.7788 21.2211 13.0453 21.1704 13.2438 21.3056C13.3686 21.3902 13.499 21.4747 13.6408 21.5592C14.6389 22.1622 15.5576 22.4609 16.3231 22.4609C17.015 22.4609 17.5764 22.2017 17.9337 21.6776C17.9564 21.6381 17.9791 21.6156 17.9847 21.5987C18.0868 21.4353 18.1605 21.2606 18.2116 21.0915C18.3137 20.7421 18.2966 20.3814 18.1549 20.0546C18.0018 19.7108 17.7069 19.3783 17.2475 19.1022C16.9413 18.9162 16.5613 18.7528 16.102 18.6288C14.9338 18.3019 14.0718 17.8398 13.6067 17.2199C13.0964 16.538 13.0567 15.7152 13.6011 14.7178C13.964 14.0584 14.7069 13.647 15.6483 13.5738C16.4592 13.5118 17.4347 13.7034 18.4271 14.2049C18.6426 14.312 18.7276 14.5712 18.6142 14.7854C18.5008 14.9995 18.2456 15.0841 18.0301 14.9714C17.1851 14.5431 16.3799 14.3796 15.7107 14.4304C15.0699 14.4811 14.5822 14.729 14.3667 15.1235C14.0037 15.7829 14.0094 16.3013 14.3043 16.6958C14.6445 17.1523 15.3534 17.5073 16.3402 17.7835C16.8732 17.9356 17.3269 18.1272 17.7012 18.3526C18.3193 18.7246 18.7333 19.1923 18.9545 19.6995C19.1813 20.2236 19.2097 20.7759 19.0566 21.3169C18.9885 21.5592 18.8808 21.8016 18.7333 22.0382C18.6993 22.089 18.6766 22.1284 18.6596 22.1566C18.1322 22.9287 17.3212 23.3119 16.3345 23.3175C15.4101 23.3175 14.3326 22.9794 13.1984 22.2918C13.0567 22.2129 12.9092 22.1228 12.7561 22.0157Z" fill="#EA501F"/>
</svg>
