<svg width="31" height="30" viewBox="0 0 31 30" fill="none" xmlns="http://www.w3.org/2000/svg">
<g clip-path="url(#clip0_60_3190)">
<path d="M24.0778 29.5859H7.04718C3.45701 29.5859 0.546875 26.6788 0.546875 23.0924V6.07948C0.546875 2.49304 3.45701 -0.414062 7.04718 -0.414062H24.0778C27.668 -0.414062 30.5781 2.49304 30.5781 6.07948V23.0924C30.5781 26.6788 27.668 29.5859 24.0778 29.5859Z" fill="#1BA9FF"/>
<path d="M9.76188 12.3359C8.25338 12.3365 6.74434 12.3349 5.23584 12.3376C5.11117 12.3376 4.98326 12.35 4.8629 12.3801C4.46891 12.4783 4.24493 12.8163 4.24223 13.2983C4.23899 13.797 4.42249 14.065 4.85049 14.1841C5.29359 14.2699 5.74155 14.223 6.18628 14.2176C6.43832 14.2149 6.51982 14.271 6.5182 14.5389C6.50741 16.7068 6.51334 18.8748 6.51496 21.0427C6.51496 21.3133 6.52953 21.5808 6.73624 21.791C6.7519 21.8466 6.79076 21.8789 6.84311 21.8978C7.2684 22.3323 8.04829 22.1835 8.3257 21.6158C8.44174 21.3926 8.44174 21.1505 8.44174 20.9084C8.44174 18.7734 8.4466 16.6378 8.43472 14.5028C8.43364 14.2596 8.51784 14.2149 8.72671 14.2208C9.10343 14.2316 9.48123 14.2321 9.85795 14.2203C10.1127 14.2122 10.3561 14.1561 10.5223 13.9302C10.7733 13.5889 10.8149 13.2223 10.6384 12.8417C10.4684 12.474 10.1526 12.3359 9.76188 12.3359Z" fill="#FCFDFC"/>
<path d="M13.7669 20.1564C13.7675 18.169 13.7675 16.1817 13.7659 14.1944C13.7659 13.9173 13.7562 13.6402 13.7513 13.3636C13.7394 12.6395 13.2105 12.2168 12.5148 12.3748C12.0059 12.4901 11.7592 12.8374 11.7587 13.4595C11.757 15.8841 11.7581 18.3081 11.7587 20.7327C11.7587 20.9122 11.7544 21.0923 11.7668 21.2713C11.7932 21.6428 12.0809 22.0461 12.4052 22.0898C12.9164 22.1588 13.3249 22.1598 13.5856 21.7334C13.8393 21.3182 13.7578 20.868 13.7524 20.4238C13.7567 20.3343 13.7669 20.2453 13.7669 20.1564Z" fill="#FCFDFC"/>
<path d="M25.5749 12.6644L25.5744 12.6633C25.2479 12.2606 24.5597 12.2498 24.2213 12.5431C24.1555 12.5937 24.0761 12.6315 24.0481 12.7188C23.9121 12.8935 23.8403 13.0881 23.8408 13.3124C23.8446 15.6723 23.8462 18.0322 23.8478 20.392C23.8478 20.6789 23.8387 20.9662 23.8435 21.2531C23.8489 21.5404 23.9844 21.7922 24.1916 21.961C24.5225 22.2305 25.1804 22.1691 25.5269 21.8844C25.5431 21.8655 25.5593 21.8472 25.5755 21.8283C25.5544 21.7717 25.5317 21.7167 25.5161 21.6617C25.5317 21.7162 25.5544 21.7717 25.5755 21.8283C25.7827 21.6148 25.8399 21.3453 25.8399 21.0638C25.8432 18.5363 25.8437 16.0093 25.841 13.4817C25.8415 13.1847 25.7957 12.8941 25.5749 12.6644ZM24.3195 21.4159C24.3195 21.4159 24.3195 21.4164 24.3195 21.4159C24.3147 21.4272 24.305 21.4401 24.3023 21.4504C24.305 21.4401 24.3147 21.4272 24.3195 21.4159Z" fill="#FCFDFC"/>
<path d="M21.5804 19.5121C21.5405 19.4086 21.4671 19.3336 21.3742 19.2759C21.3051 19.194 21.2398 19.1083 21.1664 19.0306C20.5555 18.3858 19.9478 17.7372 19.3276 17.101C19.1798 16.9495 19.2132 16.8621 19.346 16.7333C19.8814 16.2146 20.4152 15.6949 20.9365 15.1622C21.3499 14.7395 21.8076 14.3578 22.153 13.8699C22.3673 13.5674 22.4321 13.2428 22.2604 12.9091C21.9269 12.2605 21.1853 12.1268 20.6623 12.6514C20.0293 13.2865 19.4356 13.961 18.8273 14.6204C18.7858 14.6656 18.7005 14.7099 18.7674 14.7972L18.7631 14.8021C18.6595 14.7406 18.6179 14.8355 18.5693 14.8878C18.1969 15.2862 17.8289 15.689 17.4581 16.089C17.4187 16.1316 17.389 16.199 17.2827 16.1639C17.2827 16.0561 17.2832 15.9424 17.2827 15.8281C17.2805 14.9665 17.2837 14.1049 17.2735 13.2439C17.2654 12.5527 16.5908 12.2405 16.0629 12.3645C15.521 12.4923 15.2738 12.846 15.2733 13.4854C15.2722 15.9084 15.2733 18.3313 15.2733 20.7548C15.2733 20.9252 15.2614 21.0972 15.2798 21.2659C15.3624 22.0256 16.0068 22.2472 16.5961 22.0908C17.0646 21.9663 17.2746 21.638 17.2789 21.1527C17.2886 20.1122 17.2902 19.0716 17.2972 18.0305C17.2978 17.9647 17.246 17.8736 17.3377 17.8402C17.4084 17.8143 17.4392 17.8973 17.4797 17.941C17.6265 18.0984 17.7689 18.2596 17.9174 18.4154C18.3497 18.8694 18.741 19.3617 19.2024 19.7881C19.278 19.8733 19.3535 19.9585 19.4286 20.0431C19.9461 20.6578 20.4853 21.253 21.0526 21.8223C21.2787 22.0493 21.548 22.1286 21.8767 22.1329C22.6836 22.1426 23.0689 21.3193 22.6663 20.6863C22.377 20.234 21.9825 19.8674 21.5804 19.5121ZM18.9703 18.6645C18.9536 18.6316 18.9266 18.609 18.8835 18.6036C18.9266 18.609 18.9536 18.6316 18.9703 18.6645ZM19.2386 18.7977C19.2413 18.802 19.2434 18.8069 19.2456 18.8117C19.2434 18.8069 19.2413 18.802 19.2386 18.7977ZM21.8443 13.4876C21.8427 13.5345 21.8217 13.5636 21.7812 13.5658C21.8217 13.5636 21.8427 13.5345 21.8443 13.4876C21.8405 13.4396 21.8168 13.3997 21.7709 13.3895C21.8168 13.3997 21.8405 13.4396 21.8443 13.4876ZM17.0193 17.4601C17.022 17.4498 17.0317 17.4369 17.0366 17.4256C17.0312 17.4369 17.022 17.4498 17.0193 17.4601Z" fill="#FCFDFC"/>
<path d="M24.718 11.3404C24.7222 11.3404 24.7263 11.3398 24.7311 11.3398C24.7263 11.3398 24.7216 11.3398 24.7168 11.3398C24.7174 11.3404 24.7174 11.3404 24.718 11.3404Z" fill="#606060"/>
<path d="M24.7202 7.02344C24.3569 7.02344 24.0147 7.11348 23.7141 7.27199C23.6477 7.30164 23.5846 7.33776 23.5263 7.38305C23.1393 7.63969 22.8403 8.01709 22.6827 8.46189C22.6018 8.65599 22.5656 8.85979 22.5618 9.06844C22.5597 9.10618 22.5586 9.14446 22.5586 9.18274C22.5586 9.60597 22.6806 10.0001 22.8911 10.3333C23.1998 10.8363 23.7071 11.1895 24.3019 11.3027C24.358 11.3135 24.4141 11.321 24.4697 11.3275C24.5145 11.3323 24.5599 11.3366 24.6047 11.3388C24.6068 11.3388 24.609 11.3388 24.6111 11.3393C24.6468 11.341 24.6824 11.342 24.7185 11.342C24.7229 11.342 24.7272 11.342 24.7315 11.342C24.7574 11.342 24.7833 11.341 24.8092 11.3399C24.8308 11.3388 24.8524 11.3377 24.874 11.3361C24.8788 11.3356 24.8837 11.3356 24.888 11.335C26.0031 11.2493 26.8812 10.3187 26.8812 9.18328C26.8817 7.99014 25.914 7.02344 24.7202 7.02344ZM25.4704 10.866C24.5663 11.3857 23.4254 10.8816 23.1501 9.84913C23.0746 9.56608 23.0891 9.28194 23.0794 8.99619C23.0616 8.99727 23.0454 8.99673 23.0308 8.99511C23.046 8.99673 23.0621 8.99673 23.0794 8.99619C23.094 8.94659 23.108 8.89699 23.1226 8.84739C23.6413 8.79563 24.161 8.83499 24.6802 8.8269C25.1465 8.81989 25.6128 8.82798 26.0792 8.8242C26.2103 8.82313 26.2956 8.84523 26.3226 9.00158C26.4483 9.72189 26.0937 10.5074 25.4704 10.866Z" fill="#FCFDFC"/>
<path d="M12.6229 7.07333C11.462 7.00486 10.4554 8.11281 10.484 9.23155C10.5137 10.3972 11.469 11.3423 12.665 11.3332C13.8022 11.3251 14.7693 10.3859 14.7817 9.20513C14.7936 8.01738 13.7714 7.03074 12.6229 7.07333ZM13.2398 10.9444C12.339 11.352 11.3173 10.7892 11.0626 9.77393C11.0496 9.72164 11.0383 9.66934 11.028 9.6165C10.919 9.06387 10.9714 8.8838 11.3713 8.83905H14.1022C14.1951 8.86978 14.2361 8.9458 14.2496 9.08274C14.3365 9.96425 13.9171 10.6382 13.2398 10.9444Z" fill="#FCFDFC"/>
</g>
<defs>
<clipPath id="clip0_60_3190">
<rect width="30.0313" height="29.8432" fill="white" transform="translate(0.546875 0.0371094)"/>
</clipPath>
</defs>
</svg>
